<svg width="24" height="24" viewBox="0 0 24 24" fill="none" xmlns="http://www.w3.org/2000/svg">
<path fill-rule="evenodd" clip-rule="evenodd" d="M4.99976 3.2C4.99976 1.72847 6.16922 0.5 7.63309 0.5H16.1664C16.3017 0.5 16.4312 0.554813 16.5254 0.651927L21.8587 6.15193C21.9492 6.24521 21.9998 6.37006 21.9998 6.5V20.8C21.9998 22.2715 20.8303 23.5 19.3664 23.5H7.63309C6.16922 23.5 4.99976 22.2715 4.99976 20.8V3.2ZM7.63309 1.5C6.75029 1.5 5.99976 2.25153 5.99976 3.2V20.8C5.99976 21.7485 6.75029 22.5 7.63309 22.5H19.3664C20.2492 22.5 20.9998 21.7485 20.9998 20.8V7H18.2998C16.8359 7 15.6664 5.77153 15.6664 4.3V1.5H7.63309ZM16.6664 2.23387L20.3184 6H18.2998C17.417 6 16.6664 5.24847 16.6664 4.3V2.23387Z" fill="#323438"/>
<path d="M18 18.25V10.75C18 10.0596 17.4926 9.5 16.8667 9.5L2.13333 9.5C1.50741 9.5 1 10.0596 1 10.75V18.25C1 18.9404 1.50741 19.5 2.13333 19.5H16.8667C17.4926 19.5 18 18.9404 18 18.25Z" fill="#42A5F5"/>
<path d="M4.3251 17.2525C5.5101 17.2525 6.0426 16.405 6.0426 15.3625V11.5975H4.9326V15.2725C4.9326 16.0375 4.6776 16.2925 4.1826 16.2925C3.8676 16.2925 3.5751 16.12 3.3651 15.715L2.6001 16.285C2.9751 16.93 3.5151 17.2525 4.3251 17.2525Z" fill="white"/>
<path d="M7.00529 17.1475H8.11529V15.175H8.85779C10.0503 15.175 10.9953 14.6125 10.9953 13.345C10.9953 12.025 10.0503 11.5975 8.82779 11.5975H7.00529V17.1475ZM8.11529 14.2975V12.4825H8.74529C9.51029 12.4825 9.91529 12.6925 9.91529 13.345C9.91529 13.975 9.54779 14.2975 8.78279 14.2975H8.11529Z" fill="white"/>
<path d="M14.0177 17.2525C14.7827 17.2525 15.4427 16.96 15.8177 16.585V14.0875H13.8377V14.995H14.8277V16.09C14.6702 16.2175 14.4002 16.2925 14.1302 16.2925C13.0427 16.2925 12.4877 15.5725 12.4877 14.3575C12.4877 13.1725 13.1252 12.4525 14.0552 12.4525C14.5502 12.4525 14.8652 12.655 15.1427 12.9175L15.7277 12.205C15.3677 11.845 14.8127 11.5 14.0177 11.5C12.5402 11.5 11.3552 12.565 11.3552 14.395C11.3552 16.2475 12.5102 17.2525 14.0177 17.2525Z" fill="white"/>
</svg>
