<svg width="24" height="24" viewBox="0 0 24 24" fill="none" xmlns="http://www.w3.org/2000/svg">
<path fill-rule="evenodd" clip-rule="evenodd" d="M4.99976 3.2C4.99976 1.72847 6.16922 0.5 7.63309 0.5H16.1664C16.3017 0.5 16.4312 0.554813 16.5254 0.651927L21.8587 6.15193C21.9492 6.24521 21.9998 6.37006 21.9998 6.5V20.8C21.9998 22.2715 20.8303 23.5 19.3664 23.5H7.63309C6.16922 23.5 4.99976 22.2715 4.99976 20.8V3.2ZM7.63309 1.5C6.75029 1.5 5.99976 2.25153 5.99976 3.2V20.8C5.99976 21.7485 6.75029 22.5 7.63309 22.5H19.3664C20.2492 22.5 20.9998 21.7485 20.9998 20.8V7H18.2998C16.8359 7 15.6664 5.77153 15.6664 4.3V1.5H7.63309ZM16.6664 2.23387L20.3184 6H18.2998C17.417 6 16.6664 5.24847 16.6664 4.3V2.23387Z" fill="#323438"/>
<path d="M18 18.25V10.75C18 10.0596 17.4926 9.5 16.8667 9.5L2.13333 9.5C1.50741 9.5 1 10.0596 1 10.75V18.25C1 18.9404 1.50741 19.5 2.13333 19.5H16.8667C17.4926 19.5 18 18.9404 18 18.25Z" fill="#523CC3"/>
<path d="M3 16.9487H4.07093V15.0456H4.78729C5.93781 15.0456 6.84954 14.5029 6.84954 13.2801C6.84954 12.0065 5.93781 11.5941 4.75834 11.5941H3V16.9487ZM4.07093 14.199V12.4479H4.67875C5.41682 12.4479 5.80756 12.6505 5.80756 13.2801C5.80756 13.8879 5.453 14.199 4.71493 14.199H4.07093Z" fill="white"/>
<path d="M7.46455 16.9487H8.47758V14.8068C8.47758 14.1846 8.39075 13.5116 8.3401 12.94H8.37628L8.91898 14.0832L10.4675 16.9487H11.5601V11.5941H10.5398V13.7287C10.5398 14.3365 10.6267 15.0529 10.6846 15.61H10.6484L10.1057 14.4523L8.54994 11.5941H7.46455V16.9487Z" fill="white"/>
<path d="M14.8237 17.05C15.5618 17.05 16.1985 16.7678 16.5603 16.406V13.9964H14.65V14.872H15.6052V15.9284C15.4532 16.0514 15.1927 16.1238 14.9323 16.1238C13.883 16.1238 13.3476 15.4291 13.3476 14.2569C13.3476 13.1136 13.9626 12.419 14.8599 12.419C15.3375 12.419 15.6414 12.6143 15.9091 12.8676L16.4735 12.1802C16.1262 11.8329 15.5907 11.5 14.8237 11.5C13.3982 11.5 12.2549 12.5275 12.2549 14.2931C12.2549 16.0804 13.3693 17.05 14.8237 17.05Z" fill="white"/>
</svg>
