<svg width="24" height="24" viewBox="0 0 24 24" fill="none" xmlns="http://www.w3.org/2000/svg">
<path fill-rule="evenodd" clip-rule="evenodd" d="M4.99988 3.2C4.99988 1.72847 6.16934 0.5 7.63321 0.5H16.1665C16.3018 0.5 16.4313 0.554813 16.5255 0.651927L21.8588 6.15193C21.9493 6.24521 21.9999 6.37006 21.9999 6.5V20.8C21.9999 22.2715 20.8304 23.5 19.3665 23.5H7.63321C6.16934 23.5 4.99988 22.2715 4.99988 20.8V3.2ZM7.63321 1.5C6.75041 1.5 5.99988 2.25153 5.99988 3.2V20.8C5.99988 21.7485 6.75041 22.5 7.63321 22.5H19.3665C20.2493 22.5 20.9999 21.7485 20.9999 20.8V7H18.2999C16.836 7 15.6665 5.77153 15.6665 4.3V1.5H7.63321ZM16.6665 2.23387L20.3186 6H18.2999C17.4171 6 16.6665 5.24847 16.6665 4.3V2.23387Z" fill="#323438"/>
<path d="M18 18.25V10.75C18 10.0596 17.4926 9.5 16.8667 9.5L2.13333 9.5C1.50741 9.5 1 10.0596 1 10.75V18.25C1 18.9404 1.50741 19.5 2.13333 19.5H16.8667C17.4926 19.5 18 18.9404 18 18.25Z" fill="#008040"/>
<path d="M3.20053 17H4.33093L4.89973 15.8192C5.02933 15.5456 5.15173 15.2648 5.28853 14.9408H5.31733C5.47573 15.2648 5.59813 15.5456 5.73493 15.8192L6.33253 17H7.51333L6.01573 14.3L7.41973 11.672H6.29653L5.79253 12.7664C5.67733 13.0184 5.56933 13.2776 5.43973 13.6088H5.40373C5.24533 13.2776 5.13013 13.0184 5.00773 12.7664L4.47493 11.672H3.29413L4.69813 14.2496L3.20053 17ZM8.197 17H11.4226V16.1072H9.2626V11.672H8.197V17ZM13.6537 17.1008C14.8849 17.1008 15.6121 16.3592 15.6121 15.488C15.6121 14.7176 15.1873 14.3072 14.5393 14.0408L13.8409 13.7456C13.3873 13.5656 13.0057 13.4288 13.0057 13.0472C13.0057 12.6944 13.3081 12.4856 13.7761 12.4856C14.2153 12.4856 14.5681 12.644 14.9065 12.9248L15.4465 12.2552C15.0145 11.816 14.3953 11.5712 13.7761 11.5712C12.6961 11.5712 11.9329 12.2408 11.9329 13.112C11.9329 13.8896 12.4729 14.3216 13.0129 14.5448L13.7257 14.8472C14.2009 15.0488 14.5249 15.1712 14.5249 15.5672C14.5249 15.9416 14.2297 16.1792 13.6753 16.1792C13.2073 16.1792 12.7033 15.9416 12.3217 15.5888L11.7097 16.3232C12.2281 16.82 12.9409 17.1008 13.6537 17.1008Z" fill="white"/>
</svg>
